<svg width="557" height="200" viewBox="0 0 557 200" fill="none" xmlns="http://www.w3.org/2000/svg">
<g clip-path="url(#clip0_33_2)">
<path d="M87.6759 100.295C86.7698 99.9891 85.8631 99.6168 84.9417 99.377C82.4635 98.7375 79.9725 98.4454 77.4065 98.6333C76.5671 98.7068 75.5977 98.4178 74.8332 97.9947C71.8708 96.3676 69.8353 93.8066 68.476 90.6445C67.9098 89.3435 67.9767 87.9377 68.25 86.5797C68.4776 85.4205 69.3303 85.0658 70.2716 85.7684C71.0853 86.3729 71.7736 87.1438 72.556 87.7982C73.5459 88.6161 74.5517 89.4338 75.6041 90.1519C76.3535 90.6578 77.1936 90.6669 78.112 90.5596C79.3787 90.4162 80.6948 90.4873 81.9794 90.5751C83.7081 90.6922 85.4683 90.7924 87.1669 91.0915C89.0719 91.4384 90.8531 92.1171 91.7274 94.2089C91.9218 94.6866 92.3011 94.5675 92.5519 94.2512C92.9279 93.7519 93.2879 93.2363 93.5524 92.6719C95.4978 88.6045 96.7277 84.2789 97.8463 79.9212C98.7502 76.3754 99.5589 72.814 99.7484 69.1423C99.8436 67.356 99.8596 65.5705 99.9706 63.784C99.9977 63.2548 100.231 62.7237 100.432 62.2095C100.649 61.662 101.043 61.361 101.661 61.3555C102.311 61.3498 102.789 61.6432 102.937 62.2535C103.232 63.3586 103.511 64.4802 103.632 65.6199C103.873 67.7503 103.829 69.9164 104.18 72.0293C105.183 77.8893 106.912 83.5279 109.795 88.6934C110.52 90.0096 111.56 91.1411 112.506 92.323C112.762 92.6349 113.192 92.8129 113.527 93.058C116.588 89.6916 120.382 88.6497 124.6 88.7779C128.119 88.8791 131.262 87.6611 134.098 85.6358C135.594 84.5646 136.93 83.2634 138.25 81.9623C138.721 81.4952 139.115 81.1942 139.751 81.42C140.45 81.6618 140.914 82.1868 140.842 82.9479C140.769 83.7255 140.602 84.537 140.291 85.2341C139 88.0393 137.007 90.2225 134.581 91.9632C131.242 94.3732 127.546 95.8275 123.459 96.0619C122.699 96.1016 121.939 96.2406 121.18 96.3961C120.816 96.4654 120.469 96.6668 120.106 96.8023C120.09 96.8851 120.075 96.9844 120.06 97.0672C120.538 97.3605 120.985 97.7038 121.495 97.9638C123.771 99.0844 126.047 100.155 128.323 101.26C129.04 101.617 129.709 102.057 130.426 102.415C132.862 103.683 134.118 105.953 135.075 108.457C135.416 109.364 135.536 110.322 135.132 111.267C134.914 111.765 134.678 111.883 134.152 111.623C131.414 110.308 128.584 109.226 125.538 108.971C125.3 108.957 125.062 108.909 124.825 108.945C120.803 109.377 117.49 107.538 114.269 105.401C113.664 105.009 113.105 104.535 112.577 104.043C112.034 103.519 111.414 103.392 110.847 103.794C110.123 104.313 109.351 104.898 108.883 105.646C108.132 106.827 107.573 108.154 107.046 109.465C106.177 111.589 105.42 113.761 104.551 115.885C104.364 116.333 103.939 116.667 103.626 117.05C103.305 116.673 102.922 116.329 102.681 115.901C100.683 112.298 98.7178 108.679 96.7681 105.059C96.156 103.94 95.6952 103.812 94.6872 104.532C94.4036 104.733 94.1362 104.966 93.9167 105.233C91.6428 107.997 88.6614 109.61 85.4868 110.878C83.7651 111.555 81.9404 111.323 80.1487 111.256C79.4036 111.229 78.6585 111.219 77.9443 111.11C76.4365 110.875 75.1738 111.465 73.9286 112.253C73.1721 112.739 72.3514 113.143 71.4979 113.415C70.597 113.704 70.0061 113.197 69.9183 112.222C69.7615 110.62 70.4005 109.391 71.5169 108.373C73.5295 106.537 75.9292 105.457 78.3938 104.559C79.7052 104.085 81.0814 103.775 82.4084 103.284C83.7987 102.776 85.1563 102.152 86.4981 101.529C86.9401 101.327 87.2852 100.927 87.6947 100.626C87.6938 100.526 87.6769 100.411 87.6759 100.295Z" fill="white"/>
<path d="M214.215 120.073V118.345L216.615 118.057C219.111 117.769 221.031 117.289 221.031 114.697C221.031 113.353 220.455 111.241 219.495 108.745L214.791 96.9365H191.847L188.007 108.073C187.143 110.473 186.855 112.009 186.855 113.257C186.855 114.793 187.431 116.041 188.583 117.001C189.351 117.673 190.887 118.249 192.519 118.633V120.073H177.735V118.921L178.119 118.537C179.943 116.713 181.479 113.833 183.399 108.745L197.031 71.7845C199.143 65.9285 201.543 59.4005 203.079 54.6005H206.247C207.207 57.9605 210.183 65.0645 211.623 68.8085L228.615 111.817C230.247 115.849 231.591 117.673 234.183 118.729V120.073H214.215ZM213.351 93.4805L202.695 66.0245L193.095 93.4805H213.351ZM241.197 63.9125C241.197 62.2805 240.909 61.6085 239.469 60.6485L237.645 59.4005V58.3445L247.437 53.0645L248.397 53.6405C248.301 56.1365 247.917 66.6005 247.917 69.6725V113.353C247.917 116.809 249.069 117.289 251.757 117.769L255.693 118.441V120.073H236.781V118.729L238.413 118.345C241.101 117.673 241.197 115.273 241.197 106.537V63.9125ZM274.566 121.225C262.086 121.225 254.406 112.201 254.406 99.9125C254.406 86.8565 265.638 73.7045 279.078 73.7045C282.054 73.7045 287.526 74.3765 290.31 76.2965L287.526 82.3445C287.334 82.2485 287.046 82.1525 286.854 82.0565C283.11 80.5205 279.174 79.5605 275.142 79.5605C264.87 79.5605 260.454 87.0485 260.454 95.2085C260.454 105.193 266.982 116.329 277.254 116.329C281.19 116.329 285.318 115.465 289.35 112.777L290.598 114.793C285.702 119.401 279.174 121.225 274.566 121.225ZM295.197 63.8165C295.197 62.1845 294.909 61.5125 293.469 60.5525L291.645 59.3045V58.2485L301.437 52.9685L302.397 53.5445C302.301 56.0405 301.917 66.6005 301.917 69.6725V83.1125C307.581 77.3525 314.685 74.3765 318.909 74.3765C324.573 74.3765 330.333 78.8885 332.061 84.9365C332.541 86.1845 332.733 88.4885 332.733 91.9445V113.353C332.733 116.809 333.693 117.289 336.477 117.769L340.605 118.441V120.073H321.501V118.729L323.037 118.345C325.629 117.673 326.013 115.465 326.013 113.161V93.5765C326.013 91.1765 325.821 89.2565 325.437 88.0085C323.901 82.9205 319.389 80.0405 314.685 80.0405C309.501 80.0405 305.661 82.7285 301.917 85.7045V113.353C301.917 116.809 302.877 117.289 305.565 117.769L309.501 118.441V120.073H290.781V118.729L292.797 118.153C294.909 117.577 295.197 115.561 295.197 113.161V63.8165ZM377.367 114.409C372.279 119.017 365.463 121.225 359.703 121.225C348.087 121.225 339.255 113.065 339.255 99.1445C339.255 92.6165 341.271 85.7045 345.399 80.8085C348.759 76.6805 353.559 73.9925 359.511 73.9925C367.287 73.9925 373.431 79.5605 375.639 86.1845L376.887 87.1445V88.9685L345.303 95.3045C345.303 108.169 353.463 116.329 363.351 116.329C367.479 116.329 371.895 115.081 376.119 112.393L377.367 114.409ZM367.767 87.9125C367.575 84.8405 364.695 77.3525 357.495 77.3525C349.527 77.3525 345.399 85.9925 345.303 92.6165L367.767 87.9125ZM382.291 113.161V84.3605C382.291 83.1125 382.195 82.2485 380.371 81.1925L378.451 80.0405V78.9845L388.051 73.6085L389.011 74.1845V81.6725C395.251 76.2005 400.723 74.0885 404.755 74.0885C409.843 74.0885 414.355 78.3125 416.179 81.5765C421.459 77.5445 426.931 74.0885 432.979 74.0885C440.179 74.0885 445.651 80.5205 445.651 87.6245V113.353C445.651 116.809 446.707 117.289 449.395 117.769L453.235 118.441V120.073H434.323V118.729L435.859 118.153C438.259 117.193 438.931 116.617 438.931 113.161V91.8485C438.931 89.7365 438.739 87.8165 438.259 86.1845C437.011 82.1525 434.323 79.7525 428.659 79.7525C424.915 79.7525 420.691 81.6725 417.427 83.4965V113.353C417.427 116.809 418.483 117.289 421.171 117.769L425.011 118.441V120.073H406.099V118.729L407.635 118.153C410.035 117.193 410.707 116.233 410.707 113.161V91.8485C410.707 86.6645 409.651 84.6485 407.827 82.9205C405.907 81.0005 402.931 79.7525 400.243 79.7525C395.539 79.7525 389.683 83.4965 389.011 84.0725V113.353C389.011 116.809 390.163 117.289 392.851 117.769L396.787 118.441V120.073H377.875V118.729L379.507 118.249C382.003 117.481 382.291 116.137 382.291 113.161ZM491.41 76.4885C488.53 77.8325 485.938 83.6885 484.786 86.3765L469.618 120.265C466.546 127.081 464.434 131.017 461.65 138.121H455.89L455.506 136.777C457.618 133.321 458.578 131.881 461.362 126.793L465.874 118.633L451.186 81.9605C450.418 80.0405 449.074 77.8325 448.21 77.4485L446.482 76.4885V75.3365H463.858V77.0645C460.786 77.3525 458.386 77.6405 458.386 80.0405C458.386 80.7125 458.578 81.4805 458.962 82.5365L470.098 111.529L481.81 84.7445C482.578 83.0165 482.866 81.6725 482.866 80.6165C482.866 78.6965 481.714 77.5445 479.602 77.1605V75.3365H491.41V76.4885Z" fill="white"/>
</g>
<defs>
<clipPath id="clip0_33_2">
<rect width="557" height="200" fill="white"/>
</clipPath>
</defs>
</svg>
