<svg width="275" height="100" viewBox="0 0 275 100" fill="none" xmlns="http://www.w3.org/2000/svg">
<path d="M13.336 54.2004C12.9934 54.0846 12.6505 53.9439 12.3021 53.8532C11.3651 53.6114 10.4232 53.5009 9.45298 53.572C9.1356 53.5998 8.76906 53.4905 8.47999 53.3305C7.35987 52.7153 6.59023 51.747 6.07628 50.5514C5.86219 50.0594 5.88747 49.5279 5.99082 49.0144C6.07685 48.5761 6.39929 48.442 6.75522 48.7076C7.06288 48.9362 7.32315 49.2277 7.61898 49.4751C7.99327 49.7844 8.37356 50.0935 8.77149 50.3651C9.05485 50.5564 9.37251 50.5598 9.71974 50.5192C10.1987 50.465 10.6964 50.4919 11.1821 50.5251C11.8357 50.5694 12.5013 50.6073 13.1435 50.7204C13.8638 50.8515 14.5373 51.1081 14.8679 51.8991C14.9414 52.0797 15.0848 52.0347 15.1797 51.9151C15.3218 51.7263 15.458 51.5313 15.558 51.3179C16.2935 49.78 16.7586 48.1444 17.1815 46.4967C17.5233 45.156 17.8291 43.8094 17.9008 42.4211C17.9368 41.7457 17.9428 41.0705 17.9848 40.3951C17.995 40.195 18.0831 39.9941 18.1593 39.7997C18.2414 39.5927 18.3902 39.4789 18.6239 39.4768C18.8696 39.4747 19.0504 39.5856 19.1064 39.8164C19.2179 40.2342 19.3235 40.6583 19.3693 41.0892C19.4603 41.8948 19.4435 42.7138 19.5764 43.5127C19.9555 45.7284 20.6096 47.8604 21.6995 49.8136C21.9736 50.3113 22.3669 50.7391 22.7244 51.186C22.8214 51.3039 22.9838 51.3713 23.1104 51.4639C24.2679 50.191 25.7027 49.7971 27.2973 49.8455C28.6281 49.8838 29.8166 49.4233 30.8886 48.6575C31.4544 48.2525 31.9594 47.7604 32.4585 47.2685C32.6368 47.0919 32.7856 46.9781 33.026 47.0634C33.2905 47.1549 33.4661 47.3534 33.4387 47.6411C33.4113 47.9352 33.3481 48.242 33.2305 48.5056C32.7425 49.5663 31.9886 50.3918 31.0715 51.05C29.809 51.9612 28.4115 52.5111 26.8661 52.5997C26.5785 52.6147 26.2913 52.6673 26.0042 52.7261C25.8666 52.7523 25.7354 52.8285 25.598 52.8797C25.5923 52.911 25.5866 52.9485 25.5809 52.9798C25.7617 53.0908 25.9306 53.2205 26.1233 53.3189C26.984 53.7426 27.8446 54.1476 28.7053 54.565C28.9761 54.7002 29.2293 54.8667 29.5002 55.0018C30.4213 55.4813 30.8964 56.3397 31.2583 57.2866C31.3872 57.6293 31.4323 57.9915 31.2796 58.3491C31.1974 58.5374 31.1079 58.5819 30.9093 58.4836C29.8741 57.9864 28.8037 57.5771 27.6522 57.4809C27.5623 57.4755 27.4722 57.4575 27.3824 57.4708C25.8617 57.6342 24.609 56.9389 23.3913 56.1308C23.1622 55.9828 22.9509 55.8034 22.7515 55.6176C22.546 55.4194 22.3118 55.3715 22.0974 55.5234C21.8235 55.7196 21.5318 55.9409 21.3545 56.2238C21.0707 56.6701 20.8594 57.172 20.66 57.6676C20.3315 58.4706 20.0451 59.292 19.7165 60.095C19.6461 60.2644 19.4854 60.3908 19.3668 60.5356C19.2457 60.3929 19.1007 60.2629 19.0094 60.1012C18.2543 58.7389 17.5111 57.3703 16.7739 56.0016C16.5424 55.5786 16.3682 55.5301 15.987 55.8022C15.8798 55.8782 15.7787 55.9666 15.6957 56.0673C14.8359 57.1126 13.7086 57.7226 12.5083 58.202C11.8573 58.4577 11.1673 58.37 10.4899 58.3448C10.2081 58.3347 9.92641 58.331 9.65636 58.2896C9.08625 58.2009 8.60877 58.4238 8.13795 58.7218C7.8519 58.9056 7.54161 59.0583 7.2189 59.1612C6.87826 59.2705 6.65483 59.0786 6.62162 58.7101C6.56234 58.1043 6.80396 57.6396 7.22607 57.2546C7.98706 56.5603 8.8944 56.1523 9.82632 55.8128C10.3222 55.6334 10.8425 55.5163 11.3443 55.3306C11.87 55.1384 12.3833 54.9026 12.8906 54.6669C13.0578 54.5904 13.1883 54.4392 13.3431 54.3253C13.3428 54.2878 13.3364 54.2441 13.336 54.2004Z" fill="white"/>
<path d="M55.7764 62.6418V61.9218L56.7764 61.8018C57.8164 61.6818 58.6164 61.4818 58.6164 60.4018C58.6164 59.8418 58.3764 58.9618 57.9764 57.9218L56.0164 53.0018H46.4564L44.8564 57.6418C44.4964 58.6418 44.3764 59.2818 44.3764 59.8018C44.3764 60.4418 44.6164 60.9618 45.0964 61.3618C45.4164 61.6418 46.0564 61.8818 46.7364 62.0418V62.6418H40.5764V62.1618L40.7364 62.0018C41.4964 61.2418 42.1364 60.0418 42.9364 57.9218L48.6164 42.5218C49.4964 40.0818 50.4964 37.3618 51.1364 35.3618H52.4564C52.8564 36.7618 54.0964 39.7218 54.6964 41.2818L61.7764 59.2018C62.4564 60.8818 63.0164 61.6418 64.0964 62.0818V62.6418H55.7764ZM55.4164 51.5618L50.9764 40.1218L46.9764 51.5618H55.4164ZM67.0192 39.2418C67.0192 38.5618 66.8992 38.2818 66.2992 37.8818L65.5392 37.3618V36.9218L69.6192 34.7218L70.0192 34.9618C69.9792 36.0018 69.8192 40.3618 69.8192 41.6418V59.8418C69.8192 61.2818 70.2992 61.4818 71.4192 61.6818L73.0592 61.9618V62.6418H65.1792V62.0818L65.8592 61.9218C66.9792 61.6418 67.0192 60.6418 67.0192 57.0018V39.2418ZM80.923 63.1218C75.723 63.1218 72.523 59.3618 72.523 54.2418C72.523 48.8018 77.203 43.3218 82.803 43.3218C84.043 43.3218 86.323 43.6018 87.483 44.4018L86.323 46.9218C86.243 46.8818 86.123 46.8418 86.043 46.8018C84.483 46.1618 82.843 45.7618 81.163 45.7618C76.883 45.7618 75.043 48.8818 75.043 52.2818C75.043 56.4418 77.763 61.0818 82.043 61.0818C83.683 61.0818 85.403 60.7218 87.083 59.6018L87.603 60.4418C85.563 62.3618 82.843 63.1218 80.923 63.1218ZM89.5192 39.2018C89.5192 38.5218 89.3992 38.2418 88.7992 37.8418L88.0392 37.3218V36.8818L92.1192 34.6818L92.5192 34.9218C92.4792 35.9618 92.3192 40.3618 92.3192 41.6418V47.2418C94.6792 44.8418 97.6392 43.6018 99.3992 43.6018C101.759 43.6018 104.159 45.4818 104.879 48.0018C105.079 48.5218 105.159 49.4818 105.159 50.9218V59.8418C105.159 61.2818 105.559 61.4818 106.719 61.6818L108.439 61.9618V62.6418H100.479V62.0818L101.119 61.9218C102.199 61.6418 102.359 60.7218 102.359 59.7618V51.6018C102.359 50.6018 102.279 49.8018 102.119 49.2818C101.479 47.1618 99.5992 45.9618 97.6392 45.9618C95.4792 45.9618 93.8792 47.0818 92.3192 48.3218V59.8418C92.3192 61.2818 92.7192 61.4818 93.8392 61.6818L95.4792 61.9618V62.6418H87.6792V62.0818L88.5192 61.8418C89.3992 61.6018 89.5192 60.7618 89.5192 59.7618V39.2018ZM123.756 60.2818C121.636 62.2018 118.796 63.1218 116.396 63.1218C111.556 63.1218 107.876 59.7218 107.876 53.9218C107.876 51.2018 108.716 48.3218 110.436 46.2818C111.836 44.5618 113.836 43.4418 116.316 43.4418C119.556 43.4418 122.116 45.7618 123.036 48.5218L123.556 48.9218V49.6818L110.396 52.3218C110.396 57.6818 113.796 61.0818 117.916 61.0818C119.636 61.0818 121.476 60.5618 123.236 59.4418L123.756 60.2818ZM119.756 49.2418C119.676 47.9618 118.476 44.8418 115.476 44.8418C112.156 44.8418 110.436 48.4418 110.396 51.2018L119.756 49.2418ZM125.808 59.7618V47.7618C125.808 47.2418 125.768 46.8818 125.008 46.4418L124.208 45.9618V45.5218L128.208 43.2818L128.608 43.5218V46.6418C131.208 44.3618 133.488 43.4818 135.168 43.4818C137.288 43.4818 139.168 45.2418 139.928 46.6018C142.128 44.9218 144.408 43.4818 146.928 43.4818C149.928 43.4818 152.208 46.1618 152.208 49.1218V59.8418C152.208 61.2818 152.648 61.4818 153.768 61.6818L155.368 61.9618V62.6418H147.488V62.0818L148.128 61.8418C149.128 61.4418 149.408 61.2018 149.408 59.7618V50.8818C149.408 50.0018 149.328 49.2018 149.128 48.5218C148.608 46.8418 147.488 45.8418 145.128 45.8418C143.568 45.8418 141.808 46.6418 140.448 47.4018V59.8418C140.448 61.2818 140.888 61.4818 142.008 61.6818L143.608 61.9618V62.6418H135.728V62.0818L136.368 61.8418C137.368 61.4418 137.648 61.0418 137.648 59.7618V50.8818C137.648 48.7218 137.208 47.8818 136.448 47.1618C135.648 46.3618 134.408 45.8418 133.288 45.8418C131.328 45.8418 128.888 47.4018 128.608 47.6418V59.8418C128.608 61.2818 129.088 61.4818 130.208 61.6818L131.848 61.9618V62.6418H123.968V62.0818L124.648 61.8818C125.688 61.5618 125.808 61.0018 125.808 59.7618ZM171.275 44.4818C170.075 45.0418 168.995 47.4818 168.515 48.6018L162.195 62.7218C160.915 65.5618 160.035 67.2018 158.875 70.1618H156.475L156.315 69.6018C157.195 68.1618 157.595 67.5618 158.755 65.4418L160.635 62.0418L154.515 46.7618C154.195 45.9618 153.635 45.0418 153.275 44.8818L152.555 44.4818V44.0018H159.795V44.7218C158.515 44.8418 157.515 44.9618 157.515 45.9618C157.515 46.2418 157.595 46.5618 157.755 47.0018L162.395 59.0818L167.275 47.9218C167.595 47.2018 167.715 46.6418 167.715 46.2018C167.715 45.4018 167.235 44.9218 166.355 44.7618V44.0018H171.275V44.4818ZM207.604 67.9618C205.324 68.8418 202.924 69.2818 200.644 69.2818C196.004 69.2818 191.684 67.4418 188.884 63.2018C182.124 62.2018 177.724 56.6418 177.724 49.5218C177.724 41.3618 183.204 35.1618 190.964 35.1618C198.924 35.1618 204.324 41.1218 204.324 49.0018C204.324 56.4018 199.804 62.2018 193.164 63.2018C195.284 66.3218 199.444 67.6018 203.084 67.6018C204.604 67.6018 206.044 67.3618 207.204 66.9618L207.604 67.9618ZM191.404 61.9218C197.644 61.9218 201.084 56.1618 201.084 49.7618C201.084 42.1218 197.284 36.6018 190.644 36.6018C184.404 36.6018 180.964 42.4018 180.964 48.7618C180.964 56.4018 184.764 61.9218 191.404 61.9218ZM219.895 63.2418L219.735 60.2018C218.255 61.2818 214.895 63.3218 212.655 63.3218C210.935 63.3218 209.255 62.5218 208.215 61.2018C207.615 60.4018 207.215 59.3618 207.215 57.0818V47.6418C207.215 45.8418 207.135 45.5218 205.975 44.9618L205.455 44.7218V44.0818L210.215 43.8418V43.9218C210.215 44.1218 210.015 46.1618 210.015 47.6818V55.3218C210.015 58.0818 210.335 58.9618 211.015 59.7218C211.735 60.5218 212.775 60.9618 214.095 60.9618C216.095 60.9618 218.575 59.8418 219.695 59.2018V47.3618C219.695 46.0818 219.455 45.4018 218.175 45.0818L216.855 44.7218V44.0818L222.895 43.8418V43.8818C222.775 44.8418 222.495 46.6818 222.495 47.9618V60.2418C222.495 61.2818 223.015 61.8418 224.135 61.8418C224.255 61.8418 224.375 61.8418 225.735 61.7218V62.6418L219.895 63.2418ZM241.1 60.2818C238.98 62.2018 236.14 63.1218 233.74 63.1218C228.9 63.1218 225.22 59.7218 225.22 53.9218C225.22 51.2018 226.06 48.3218 227.78 46.2818C229.18 44.5618 231.18 43.4418 233.66 43.4418C236.9 43.4418 239.46 45.7618 240.38 48.5218L240.9 48.9218V49.6818L227.74 52.3218C227.74 57.6818 231.14 61.0818 235.26 61.0818C236.98 61.0818 238.82 60.5618 240.58 59.4418L241.1 60.2818ZM237.1 49.2418C237.02 47.9618 235.82 44.8418 232.82 44.8418C229.5 44.8418 227.78 48.4418 227.74 51.2018L237.1 49.2418ZM255.098 57.2418C255.098 61.0818 251.498 62.9618 248.058 62.9618C246.858 62.9618 246.138 62.7618 244.938 62.6018L243.138 62.8018L242.138 57.4818L242.898 57.2818L243.658 58.6018C244.698 60.4418 246.298 61.6418 248.218 61.6418C250.978 61.6418 252.818 60.6418 252.818 58.4018C252.818 56.3218 250.858 55.3618 249.258 54.7618L247.338 54.0418C244.778 53.0818 242.538 52.0418 242.538 48.8818C242.538 45.2818 246.178 43.4018 249.498 43.4018C250.538 43.4018 251.818 43.4818 252.938 43.6818L253.738 47.9618L252.818 48.2418C251.938 46.2018 250.298 45.0018 247.978 45.0018C246.538 45.0018 244.698 45.7218 244.698 47.8018C244.698 49.6818 246.098 50.5218 248.098 51.2818L250.018 52.0018C252.698 53.0018 255.098 54.1618 255.098 57.2418ZM267.838 44.0018L267.518 45.6818H260.718V59.0018C260.718 60.2818 262.358 61.2018 263.558 61.2018C264.838 61.2018 265.718 60.8018 266.998 60.0418L267.438 60.9218C265.918 62.2818 263.678 63.2418 262.118 63.2418C260.238 63.2418 257.798 62.0418 257.798 59.9218C257.798 58.9218 257.918 56.2818 257.918 52.4018V46.0818C257.158 45.8818 256.318 45.6818 255.438 45.5218V45.0418L256.438 44.1618C257.198 43.4818 258.318 42.4418 259.278 41.4818L260.438 40.3218L260.998 40.4418C260.918 41.3218 260.758 42.9618 260.718 44.0018H267.838Z" fill="white"/>
</svg>
